Coordinates
version=1
nRows=6
nColumns=107
inDegrees=yes

Units are S.I. units (second, meters, Newtons, ...)
If the header above contains a line with 'inDegrees', this indicates whether rotational values are in degrees (yes) or radians (no).

endheader
time	sternoclavicular_r2	sternoclavicular_r3	unrotscap_r3	unrotscap_r2	acromioclavicular_r2	acromioclavicular_r3	acromioclavicular_r1	unrothum_r1	unrothum_r3	unrothum_r2	elv_angle	shoulder_elv	shoulder1_r2	shoulder_rot	elbow_flexion	pro_sup	deviation	flexion	proximal_distal_r1	proximal_distal_r3	cmc_flexion	cmc_abduction	mp_flexion	ip_flexion	mcp2_flexion	mcp2_abduction	pm2_flexion	md2_flexion	mcp3_flexion	mcp3_abduction	pm3_flexion	md3_flexion	mcp4_flexion	mcp4_abduction	pm4_flexion	md4_flexion	mcp5_flexion	mcp5_abduction	pm5_flexion	md5_flexion	bicpt_tx	bicpt_ty	bicpt_tz	bicpt2_tx	bicpt2_ty	bicpt2_tz	ptpt_tx	ptpt_ty	ptpt_tz	FCUpt_tx	FCUpt_ty	FCUpt_tz	EDCpt_tx	EDCpt_ty	EDCpt_tz	APLpt_tx	APLpt_ty	APLpt_tz	FPLpt_tx	FPLpt_ty	FPLpt_tz	FPLpt2_tx	FPLpt2_ty	FPLpt2_tz	PEC1pt2_tx	PEC1pt2_ty	PEC1pt2_tz	PEC1pt3_tx	PEC1pt3_ty	PEC1pt3_tz	PEC2pt2_tx	PEC2pt2_ty	PEC2pt2_tz	PEC2pt3_tx	PEC2pt3_ty	PEC2pt3_tz	PEC3pt2_tx	PEC3pt2_ty	PEC3pt2_tz	PEC3pt3_tx	PEC3pt3_ty	PEC3pt3_tz	DELT2pt2a_tx	DELT2pt2a_ty	DELT2pt2a_tz	DELT2pt2_tx	DELT2pt2_ty	DELT2pt2_tz	LAT1pt2_tx	LAT1pt2_ty	LAT1pt2_tz	LAT1pt3_tx	LAT1pt3_ty	LAT1pt3_tz	LAT2pt2_tx	LAT2pt2_ty	LAT2pt2_tz	LAT2pt3_tx	LAT2pt3_ty	LAT2pt3_tz	LAT3pt2_tx	LAT3pt2_ty	LAT3pt2_tz	LAT3pt3_tx	LAT3pt3_ty	LAT3pt3_tz
      0.50000000	     -0.31316197	      0.13264063	     -0.13264063	      0.31316197	     -0.06340893	      0.51244866	      0.23034215	     -0.23034215	     -0.51244866	      0.06340893	    102.11042286	     74.14388099	     -1.78216308	    -39.67984078	     30.84488875	     85.34813429	      0.36668672	     -0.46440137	      0.38758974	     -0.23220068	     40.88519534	    -16.27251305	      2.73059591	      7.61123565	    105.45830758	     12.08231835	     74.31479079	     62.19986461	     98.23654412	     -0.48230923	     80.84640856	     52.15289739	     91.39614999	    -13.63616069	     92.09372159	     41.20424243	    100.52157257	    -14.25976898	     82.89159531	      5.61269012	      0.00092025	     -0.03113530	     -0.00486944	      0.01430680	     -0.01857917	     -0.00118737	      0.00124374	     -0.06897773	     -0.00692525	      0.01266318	     -0.18225975	      0.00006600	     -0.01024175	      0.00354231	     -0.00073640	      0.00029454	      0.00011781	      0.00058907	      0.00037701	      0.00113102	      0.00063620	     -0.00000927	     -0.00009346	     -0.00011216	      0.00243027	      0.00852655	      0.00593152	     -0.00794988	      0.01919504	     -0.01820646	      0.00243027	      0.00852655	      0.00593152	      0.00053548	      0.01779455	     -0.00935038	      0.00387060	      0.00474151	      0.01577550	      0.00000000	      0.00734926	      0.00000000	     -0.00696129	     -0.03217023	     -0.00605728	      0.02254244	     -0.00109920	     -0.01272675	     -0.00086501	      0.01449926	     -0.00593152	      0.00238908	      0.02092507	     -0.01730025	     -0.00580794	      0.01256328	     -0.00531365	     -0.01211018	      0.02652706	     -0.02969877	     -0.02273748	      0.01404616	     -0.00712606	     -0.01507594	      0.03064616	     -0.03711316
      0.53333333	     -0.31289467	      0.13252742	     -0.13252742	      0.31289467	     -0.06335481	      0.51201126	      0.23014554	     -0.23014554	     -0.51201126	      0.06335481	    102.22209760	     74.08059544	     -1.78411217	    -40.09569993	     30.81690712	     85.54316646	      0.36479621	     -0.47279809	      0.38615604	     -0.23639904	     40.83039610	    -16.18379314	      2.99356278	      7.14116027	    105.00727139	     12.06767573	     74.39806260	     61.70003592	     98.60051961	     -0.52604006	     80.88805018	     52.60324810	     91.17393738	    -13.61878801	     92.25923671	     40.98209005	    100.40180857	    -14.25964500	     83.39026744	      5.58897343	      0.00091933	     -0.03113209	     -0.00486893	      0.01428689	     -0.01857156	     -0.00115413	      0.00122933	     -0.06898705	     -0.00694096	      0.01268555	     -0.18225318	      0.00007129	     -0.01026516	      0.00355298	     -0.00074261	      0.00029659	      0.00011864	      0.00059319	      0.00037964	      0.00113892	      0.00064064	     -0.00000935	     -0.00009459	     -0.00011350	      0.00242820	      0.00851928	      0.00592645	     -0.00794309	      0.01917866	     -0.01819092	      0.00242820	      0.00851928	      0.00592645	      0.00053503	      0.01777936	     -0.00934239	      0.00386816	      0.00473746	      0.01576932	      0.00000000	      0.00733664	      0.00000000	     -0.00695535	     -0.03214277	     -0.00604679	      0.02267190	     -0.00111434	     -0.01297177	     -0.00086427	      0.01448688	     -0.00592645	      0.00238704	      0.02090721	     -0.01728549	     -0.00580298	      0.01255256	     -0.00530911	     -0.01209984	      0.02650441	     -0.02967342	     -0.02271807	      0.01403417	     -0.00711997	     -0.01506307	      0.03062001	     -0.03708148
      0.56666667	     -0.31306095	      0.13259784	     -0.13259784	      0.31306095	     -0.06338847	      0.51228335	      0.23026784	     -0.23026784	     -0.51228335	      0.06338847	    102.14821107	     74.11996277	     -1.78282261	    -39.82990708	     30.82096884	     85.37808604	      0.36478590	     -0.47057378	      0.38614881	     -0.23528689	     40.89941724	    -16.23825858	      2.23785869	      7.98159653	    104.79307505	     12.06105197	     74.79320551	     60.24871172	     98.38626235	     -0.56319721	     81.21259072	     51.23972461	     91.09233140	    -13.63286811	     92.17622842	     41.58271270	    100.29139722	    -14.26241428	     83.52328816	      5.62180180	      0.00091946	     -0.03113255	     -0.00486900	      0.01430376	     -0.01857267	     -0.00118227	      0.00124152	     -0.06897917	     -0.00692766	      0.01266662	     -0.18225874	      0.00006681	     -0.01024535	      0.00354394	     -0.00073735	      0.00029602	      0.00011841	      0.00059204	      0.00037890	      0.00113671	      0.00063940	     -0.00000925	     -0.00009318	     -0.00011181	      0.00242949	      0.00852380	      0.00592960	     -0.00794731	      0.01918885	     -0.01820058	      0.00242949	      0.00852380	      0.00592960	      0.00053531	      0.01778881	     -0.00934736	      0.00386968	      0.00473998	      0.01577317	      0.00000000	      0.00734448	      0.00000000	     -0.00695905	     -0.03215986	     -0.00605331	      0.02259023	     -0.00110465	     -0.01281449	     -0.00086473	      0.01449458	     -0.00592960	      0.00238831	      0.02091832	     -0.01729467	     -0.00580607	      0.01255923	     -0.00531194	     -0.01210627	      0.02651850	     -0.02968919	     -0.02273014	      0.01404163	     -0.00712376	     -0.01507107	      0.03063628	     -0.03710119
      0.60000000	     -0.31271958	      0.13245325	     -0.13245325	      0.31271958	     -0.06331935	      0.51172474	      0.23001675	     -0.23001675	     -0.51172474	      0.06331935	    102.20403335	     74.03914007	     -1.78379689	    -40.17140929	     30.90135132	     85.57953459	      0.36282498	     -0.47343470	      0.38465471	     -0.23671735	     40.84761085	    -16.22757362	      2.41833067	      7.56453073	    104.90166853	     12.05646918	     74.46441135	     60.55876683	     98.26729146	     -0.43410608	     81.20970880	     51.69449109	     90.65193193	    -13.62827512	     92.31884065	     41.38200995	    100.18212633	    -14.26244734	     83.87993836	      5.61842437	      0.00092212	     -0.03114177	     -0.00487049	      0.01428318	     -0.01859450	     -0.00114793	      0.00122664	     -0.06898879	     -0.00694389	      0.01268973	     -0.18225195	      0.00007228	     -0.01026952	      0.00355497	     -0.00074376	      0.00029668	      0.00011867	      0.00059337	      0.00037975	      0.00113926	      0.00064084	     -0.00000933	     -0.00009423	     -0.00011308	      0.00242684	      0.00851451	      0.00592314	     -0.00793865	      0.01916793	     -0.01818074	      0.00242684	      0.00851451	      0.00592314	      0.00053473	      0.01776941	     -0.00933717	      0.00386656	      0.00473481	      0.01576528	      0.00000000	      0.00732838	      0.00000000	     -0.00695146	     -0.03212479	     -0.00603993	      0.02269518	     -0.00111710	     -0.01301656	     -0.00086379	      0.01447878	     -0.00592314	      0.00238571	      0.02089551	     -0.01727581	     -0.00579974	      0.01254553	     -0.00530614	     -0.01209307	      0.02648958	     -0.02965681	     -0.02270536	      0.01402632	     -0.00711599	     -0.01505464	      0.03060287	     -0.03706073
      0.63333333	     -0.31290802	      0.13253307	     -0.13253307	      0.31290802	     -0.06335751	      0.51203310	      0.23015535	     -0.23015535	     -0.51203310	      0.06335751	    102.27681886	     74.08375485	     -1.78506724	    -40.24449418	     30.73006292	     85.57153609	      0.36138850	     -0.48489455	      0.38355673	     -0.24244728	     40.84440977	    -16.21005677	      2.57411652	      7.16629951	    105.04207337	     12.06343119	     74.29038698	     60.30567488	     98.55000794	     -0.55710502	     80.88958324	     52.35268462	     91.23158791	    -13.63259373	     92.12456127	     41.28305965	    100.54417680	    -14.26232153	     83.12039197	      5.59112596	      0.00091646	     -0.03112213	     -0.00486732	      0.01428399	     -0.01854797	     -0.00114929	      0.00122723	     -0.06898841	     -0.00694325	      0.01268881	     -0.18225222	      0.00007206	     -0.01026856	      0.00355453	     -0.00074351	      0.00029921	      0.00011968	      0.00059842	      0.00038299	      0.00114897	      0.00064630	     -0.00000933	     -0.00009430	     -0.00011316	      0.00242830	      0.00851964	      0.00592671	     -0.00794343	      0.01917948	     -0.01819169	      0.00242830	      0.00851964	      0.00592671	      0.00053505	      0.01778012	     -0.00934279	      0.00386828	      0.00473766	      0.01576963	      0.00000000	      0.00733727	      0.00000000	     -0.00695565	     -0.03214415	     -0.00604732	      0.02271757	     -0.00111977	     -0.01305985	     -0.00086431	      0.01448750	     -0.00592671	      0.00238715	      0.02090810	     -0.01728622	     -0.00580323	      0.01255309	     -0.00530934	     -0.01210036	      0.02650554	     -0.02967468	     -0.02271904	      0.01403477	     -0.00712028	     -0.01506371	      0.03062131	     -0.03708307
      0.66666667	     -0.31294728	      0.13254970	     -0.13254970	      0.31294728	     -0.06336546	      0.51209735	      0.23018423	     -0.23018423	     -0.51209735	      0.06336546	    102.26691989	     74.09305075	     -1.78489447	    -40.18998915	     30.72067225	     85.55372789	      0.36282765	     -0.48194675	      0.38465755	     -0.24097338	     40.79933575	    -16.18348401	      2.52120726	      7.18570163	    105.04961179	     12.05503504	     74.23060190	     60.14858919	     98.55447229	     -0.52861795	     80.87109340	     52.34725684	     91.16356021	    -13.62821817	     92.25141910	     41.18667301	    100.54161106	    -14.26182333	     83.23816095	      5.58596502	      0.00091614	     -0.03112106	     -0.00486715	      0.01428581	     -0.01854542	     -0.00115232	      0.00122854	     -0.06898756	     -0.00694181	      0.01268677	     -0.18225282	      0.00007158	     -0.01026642	      0.00355355	     -0.00074294	      0.00029858	      0.00011943	      0.00059717	      0.00038219	      0.00114656	      0.00064494	     -0.00000940	     -0.00009521	     -0.00011426	      0.00242861	      0.00852071	      0.00592745	     -0.00794443	      0.01918188	     -0.01819398	      0.00242861	      0.00852071	      0.00592745	      0.00053512	      0.01778235	     -0.00934396	      0.00386864	      0.00473826	      0.01577054	      0.00000000	      0.00733912	      0.00000000	     -0.00695652	     -0.03214818	     -0.00604885	      0.02270080	     -0.00111778	     -0.01302761	     -0.00086442	      0.01448932	     -0.00592745	      0.00238744	      0.02091072	     -0.01728839	     -0.00580396	      0.01255467	     -0.00531001	     -0.01210188	      0.02650887	     -0.02967841	     -0.02272189	      0.01403653	     -0.00712117	     -0.01506560	      0.03062515	     -0.03708772
